<svg width="212" height="189" viewBox="0 0 212 189" fill="none" xmlns="http://www.w3.org/2000/svg">
<g clip-path="url(#clip0_1_2)">
<path d="M40.5 0L0 81.3L40.5 109.8L81 81.3L40.5 0Z" fill="#E17726"/>
<path d="M99.5 0L59 81.3L99.5 109.8L140 81.3L99.5 0Z" fill="#E27625"/>
<path d="M158.5 0L118 81.3L158.5 109.8L199 81.3L158.5 0Z" fill="#E17726"/>
<path d="M171.5 0L212 81.3L171.5 109.8L131 81.3L171.5 0Z" fill="#E27625"/>
<path d="M212 94.5L171.5 123L212 151.5L171.5 180L131 151.5L171.5 123L212 94.5Z" fill="#D5BFB2"/>
<path d="M199 94.5L158.5 123L199 151.5L158.5 180L118 151.5L158.5 123L199 94.5Z" fill="#233447"/>
<path d="M140 94.5L99.5 123L140 151.5L99.5 180L59 151.5L99.5 123L140 94.5Z" fill="#CD6116"/>
<path d="M81 94.5L40.5 123L81 151.5L40.5 180L0 151.5L40.5 123L81 94.5Z" fill="#E27625"/>
<path d="M40.5 123L0 151.5L40.5 180L81 151.5L40.5 123Z" fill="#F5841F"/>
<path d="M99.5 123L59 151.5L99.5 180L140 151.5L99.5 123Z" fill="#C0AD9E"/>
<path d="M158.5 123L118 151.5L158.5 180L199 151.5L158.5 123Z" fill="#161616"/>
<path d="M171.5 123L131 151.5L171.5 180L212 151.5L171.5 123Z" fill="#763E1A"/>
</g>
<defs>
<clipPath id="clip0_1_2">
<rect width="212" height="189" fill="white"/>
</clipPath>
</defs>
</svg>