<svg width="300" height="185" viewBox="0 0 300 185" fill="none" xmlns="http://www.w3.org/2000/svg">
<path d="M61.4385 36.2562C102.726 -5.03116 172.274 -5.03116 213.561 36.2562L218.519 41.2137C220.295 42.9895 220.295 45.8589 218.519 47.6347L201.171 65.0829C200.283 65.971 198.844 65.971 197.956 65.0829L190.388 57.5147C163.085 30.2116 116.915 30.2116 89.6123 57.5147L81.6654 65.4615C80.7773 66.3497 79.3384 66.3497 78.4503 65.4615L61.1021 48.1134C59.3263 46.3376 59.3263 43.4681 61.1021 41.6923L61.4385 36.2562ZM251.127 70.0409L266.255 85.1693C268.031 86.9451 268.031 89.8146 266.255 91.5904L194.339 163.506C192.563 165.282 189.694 165.282 187.918 163.506C187.918 163.506 187.918 163.506 187.918 163.506L137.787 113.375C137.343 112.931 136.657 112.931 136.213 113.375C136.213 113.375 136.213 113.375 136.213 113.375L86.0822 163.506C84.3064 165.282 81.4369 165.282 79.6611 163.506C79.6611 163.506 79.6611 163.506 79.6611 163.506L7.74527 91.5904C5.96949 89.8146 5.96949 86.9451 7.74527 85.1693L22.8737 70.0409C24.6495 68.2651 27.5189 68.2651 29.2947 70.0409L79.4259 120.172C79.8699 120.616 80.5563 120.616 81.0003 120.172C81.0003 120.172 81.0003 120.172 81.0003 120.172L131.131 70.0409C132.907 68.2651 135.777 68.2651 137.553 70.0409C137.553 70.0409 137.553 70.0409 137.553 70.0409L187.684 120.172C188.128 120.616 188.814 120.616 189.258 120.172L239.389 70.0409C241.165 68.2651 244.035 68.2651 245.811 70.0409L251.127 70.0409Z" fill="#3B99FC"/>
</svg>